<svg xmlns="http://www.w3.org/2000/svg" width="84" height="96" fill="none" viewBox="0 0 84 96"><path fill="#FCA311" d="M23.5926 18.1506L7.51852 27.6222L7.46667 33.5679L7.4321 39.5309L14.0346 43.4025C17.6815 45.5284 22.7284 48.484 25.2691 49.9704L29.884 52.6667L29.9012 61.1877V69.7086L29.2444 69.3111C28.8642 69.0864 26.1852 67.479 23.2815 65.7161L17.9753 62.5185L17.9407 57.2815L17.8889 52.0272L12.7037 49.1062L7.51852 46.1852L7.46667 57.1951C7.4321 65.8716 7.48395 68.2568 7.63951 68.4124C7.91605 68.6543 39.6667 87.321 39.8222 87.321C39.8741 87.321 39.9086 78.2123 39.8914 67.0815L39.8395 46.842L28.9506 40.2914C22.9704 36.6963 18.0444 33.6889 18.0272 33.6198C17.9926 33.5506 20.637 31.8741 23.9037 29.9037L29.8148 26.3432L29.8667 30.284L29.9012 34.2247L34.7926 37.1111C37.4716 38.7185 39.7185 40.0494 39.8049 40.084C39.8741 40.1185 39.9259 33.0667 39.9259 24.4247C39.9259 15.7654 39.8741 8.67902 39.8049 8.67902C39.7185 8.6963 32.442 12.9482 23.5926 18.1506Z"/><path fill="#FCA311" d="M44.5926 48C44.5926 69.6222 44.6444 87.321 44.7309 87.321C44.8 87.321 52.1975 83.0519 61.1852 77.8494L77.5185 68.3951V59.5803V50.7654L75.1333 49.4C73.5951 48.5012 72.8346 47.9654 72.9728 47.879C73.0938 47.8099 74.1654 47.1877 75.358 46.4963L77.5185 45.2346V36.4198V27.6049L61.1852 18.1506C52.1975 12.9482 44.8 8.67902 44.7309 8.67902C44.6444 8.67902 44.5926 26.3778 44.5926 48ZM63.2593 31.442L66.8025 33.4815V37.6296V41.7605L61.4099 44.8716L56.0173 48L57.4346 48.8124C58.2123 49.2617 60.6494 50.679 62.8272 51.9407L66.8025 54.2395V58.3704V62.5012L63.3457 64.5062C61.4444 65.6124 58.6617 67.2198 57.1753 68.1012L54.4444 69.6741V48V26.3259L57.0889 27.8469C58.5235 28.6938 61.3062 30.3012 63.2593 31.442Z"/></svg>
