<svg width="105" height="124" viewBox="0 0 105 124" fill="none" xmlns="http://www.w3.org/2000/svg">
<path d="M91 81.5H96C96.8284 81.5 97.5 82.1716 97.5 83V121C97.5 121.828 96.8284 122.5 96 122.5H3C2.17157 122.5 1.5 121.828 1.5 121V83C1.5 82.1716 2.17157 81.5 3 81.5H8C8.82843 81.5 9.5 82.1716 9.5 83V110C9.5 112.485 11.5147 114.5 14 114.5H85C87.4853 114.5 89.5 112.485 89.5 110V83C89.5 82.1716 90.1716 81.5 91 81.5Z" stroke="#BBBBBB" stroke-width="3"/>
<path d="M74.3858 86.0001L26.2323 75.8791C25.4216 75.7087 24.9025 74.9134 25.0729 74.1027L26.1097 69.1696C26.2801 68.3589 27.0755 67.8398 27.8863 68.0103L76.0394 78.1356C76.8501 78.3061 77.3691 79.1014 77.1987 79.9121L76.1623 84.8408C75.9918 85.6515 75.1965 86.1705 74.3858 86.0001ZM78.0968 71.5427L33.4896 50.7678C32.7386 50.418 32.4134 49.5257 32.7631 48.7748L34.8912 44.2049C35.2409 43.4539 36.1332 43.1286 36.8842 43.4784L81.492 64.2532C82.243 64.6029 82.5682 65.4953 82.2184 66.2463L80.0898 70.8163C79.74 71.5672 78.8477 71.8925 78.0968 71.5427ZM85.0675 58.5666L47.2503 27.0752C46.6136 26.5451 46.5274 25.5992 47.0576 24.9626L50.2838 21.0889C50.8139 20.4524 51.7596 20.3661 52.3962 20.8962L90.2136 52.3869C90.8502 52.917 90.9365 53.8629 90.4064 54.4995L87.18 58.3738C86.6498 59.0104 85.704 59.0967 85.0675 58.5666ZM65.8142 6.19521L69.8598 3.18607C70.5246 2.69164 71.4643 2.82973 71.9587 3.49448L101.326 42.9809C101.82 43.6456 101.682 44.5853 101.017 45.0797L96.9719 48.0882C96.3072 48.5825 95.3676 48.4444 94.8732 47.7797L65.5058 8.29396C65.0114 7.62924 65.1495 6.68961 65.8142 6.19521ZM74 100.5H25C24.1716 100.5 23.5 99.8284 23.5 99V94C23.5 93.1716 24.1716 92.5 25 92.5H74C74.8284 92.5 75.5 93.1716 75.5 94V99C75.5 99.8284 74.8284 100.5 74 100.5Z" stroke="#F58025" stroke-width="3"/>
</svg>
