<svg xmlns="http://www.w3.org/2000/svg" width="19" height="38" fill="none" viewBox="0 0 19 38"><path fill="#000" d="M0.90741 18.8413C0.90741 29.202 0.935187 37.6826 0.981484 37.6826C1.01852 37.6826 4.98148 35.637 9.7963 33.1441L18.5463 28.6139V24.3902V20.1664L17.2685 19.5121C16.4444 19.0815 16.037 18.8247 16.1111 18.7833C16.1759 18.7502 16.75 18.4521 17.3889 18.1208L18.5463 17.5162V13.2924V9.06868L9.7963 4.53848C4.98148 2.04563 1.01852 3.8147e-06 0.981484 3.8147e-06C0.935187 3.8147e-06 0.90741 8.48066 0.90741 18.8413ZM10.9074 10.9073L12.8056 11.8845V13.8722V15.8515L9.91667 17.3423L7.02778 18.8413L7.78704 19.2306C8.2037 19.4459 9.50926 20.125 10.6759 20.7296L12.8056 21.8311V23.8104V25.7898L10.9537 26.7505C9.93519 27.2806 8.44445 28.0508 7.64815 28.4732L6.18519 29.2268V18.8413V8.45582L7.60185 9.18462C8.37037 9.59044 9.86111 10.3607 10.9074 10.9073Z"/></svg>
