<svg width="18" height="38" viewBox="0 0 18 38" fill="none" xmlns="http://www.w3.org/2000/svg">
<path d="M8.65741 4.53849L0.0462963 9.07696L0.0185185 11.9259L0 14.7832L3.53704 16.6383C5.49074 17.657 8.19445 19.0732 9.55556 19.7854L12.0278 21.0774L12.037 25.1604V29.2434L11.6852 29.0529C11.4815 28.9452 10.0463 28.175 8.49074 27.3303L5.64815 25.7981L5.62963 23.2887L5.60185 20.771L2.82407 19.3714L0.0462963 17.9717L0.0185185 23.2473C0 27.4048 0.0277778 28.5477 0.111111 28.6222C0.259259 28.7382 17.2685 37.6826 17.3519 37.6826C17.3796 37.6826 17.3981 33.3181 17.3889 27.9845L17.3611 18.2864L11.5278 15.1476C8.32407 13.425 5.68519 11.9839 5.67593 11.9508C5.65741 11.9177 7.07407 11.1143 8.82407 10.1702L11.9907 8.4641L12.0185 10.3524L12.037 12.2406L14.6574 13.6237C16.0926 14.3939 17.2963 15.0316 17.3426 15.0482C17.3796 15.0648 17.4074 11.6858 17.4074 7.54481C17.4074 3.39558 17.3796 7.62939e-06 17.3426 7.62939e-06C17.2963 0.00828934 13.3981 2.04564 8.65741 4.53849Z" fill="black"/>
</svg>
